<svg width="411" height="110" viewBox="0 0 411 110" fill="none" xmlns="http://www.w3.org/2000/svg">
<path d="M41.85 96.4C43.25 98.9 43.95 101.1 43.95 103C43.95 105.2 43.05 106.95 41.25 108.25C40.25 108.85 39.2 109.15 38.1 109.15C36.6 109.15 35.2 108.65 33.9 107.65C32.7 106.65 32 105.35 31.8 103.75C30.3 101.75 29.55 99.4 29.55 96.7C29.55 95.5 29.7 94.3 30 93.1C29.2 91.2 28.8 89.25 28.8 87.25C28.8 85.05 29.2 83.3 30 82C29.5 80.8 29.25 79.65 29.25 78.55C29.25 77.45 29.4 76.45 29.7 75.55C30.1 74.65 30.6 74 31.2 73.6C30.4 72.3 30 71.05 30 69.85C30 69.05 30.2 68.3 30.6 67.6C29.9 66.9 29.3 66 28.8 64.9C28.4 63.7 28.2 62.55 28.2 61.45C28.2 60.05 28.6 58.95 29.4 58.15C29.3 57.65 29.25 56.95 29.25 56.05C29.25 55.15 29.3 54.5 29.4 54.1C28.6 53.2 28.2 52 28.2 50.5C28.2 48.7 28.75 47.25 29.85 46.15C29.15 45.55 28.6 44.7 28.2 43.6C27.8 42.4 27.6 41.15 27.6 39.85C27.6 37.45 28.1 35.8 29.1 34.9C28.7 33.1 28.5 31.9 28.5 31.3C28.5 30.5 28.7 29.4 29.1 28C28 26.6 27.45 25.15 27.45 23.65C27.45 22.85 27.7 21.95 28.2 20.95C27.7 20.15 27.45 19.15 27.45 17.95C25.35 19.25 23.1 19.9 20.7 19.9C19.6 19.9 18.55 19.75 17.55 19.45C16.35 21.15 14.6 22 12.3 22C11.4 22 10.7 21.9 10.2 21.7C9.1 22.5 7.95 22.9 6.75 22.9C5.15 22.9 3.7 22.3 2.4 21.1C1.1 19.9 0.45 18.4 0.45 16.6C0.45 14.6 1.55 12.85 3.75 11.35C5.95 9.85 8.1 9.2 10.2 9.39999C10.8 8.59999 11.7 7.99999 12.9 7.59999C14.2 7.2 15.6 7 17.1 7C18.3 7 19.25 7.15 19.95 7.44999C21.05 6.64999 22.55 6.24999 24.45 6.24999C24.45 5.64999 24.75 5.14999 25.35 4.74999C26.05 4.24999 26.75 4.04999 27.45 4.14999C29.25 3.14999 31 2.64999 32.7 2.64999C34.4 2.64999 35.95 3.14999 37.35 4.14999C38.65 4.65 39.7 5.65 40.5 7.15C41.3 8.55 41.7 10.05 41.7 11.65C41.7 13.55 41.2 15.05 40.2 16.15C41.6 17.25 42.3 18.85 42.3 20.95C42.3 22.55 41.9 23.8 41.1 24.7C41.7 26.2 42 28.1 42 30.4C42 34.1 41.4 37 40.2 39.1C42 40.3 42.9 42.15 42.9 44.65C42.9 46.55 42.4 48.4 41.4 50.2C41.9 51.4 42.15 52.45 42.15 53.35C42.15 54.35 41.95 55.2 41.55 55.9C42.15 56.8 42.45 57.8 42.45 58.9C42.45 59.9 42.15 60.95 41.55 62.05C42.85 64.65 43.5 67.95 43.5 71.95C43.5 74.95 43.05 77.45 42.15 79.45C42.75 80.35 43.05 81.4 43.05 82.6C43.05 83.8 42.7 84.9 42 85.9C42.5 86.9 42.75 88.35 42.75 90.25C42.75 92.15 42.45 94.2 41.85 96.4ZM163.563 59.2C164.163 58.3 165.263 57.85 166.863 57.85C167.963 57.85 168.863 58 169.563 58.3C171.863 58.3 173.713 59.1 175.113 60.7C176.513 62.2 177.213 63.9 177.213 65.8C177.213 67.2 176.763 68.4 175.863 69.4C175.063 70.4 173.863 71 172.263 71.2C170.763 72 168.963 72.4 166.863 72.4C164.963 72.4 163.563 72.1 162.663 71.5C161.063 72.3 159.063 72.7 156.663 72.7C154.663 72.7 153.163 72.35 152.163 71.65C150.463 72.95 148.163 73.6 145.263 73.6C143.563 73.6 141.613 73.35 139.413 72.85C139.813 73.95 140.013 75.35 140.013 77.05C140.013 78.55 139.763 79.8 139.263 80.8C139.863 82.6 140.163 84.05 140.163 85.15C140.163 86.95 139.563 88.45 138.363 89.65C140.063 91.05 140.913 93.35 140.913 96.55C140.913 98.35 140.563 100.1 139.863 101.8C139.163 103.4 138.113 104.55 136.713 105.25C135.813 105.75 134.713 106 133.413 106C131.513 106 129.813 105.35 128.313 104.05C126.813 102.65 126.063 100.95 126.063 98.95C126.063 98.35 126.113 97.9 126.213 97.6C125.113 96.4 124.563 94.25 124.563 91.15C124.563 88.75 124.913 87.25 125.613 86.65C125.013 85.75 124.713 84.6 124.713 83.2C124.713 82.3 124.913 81.25 125.313 80.05C125.013 79.85 124.763 79.25 124.563 78.25C124.363 77.25 124.263 76.25 124.263 75.25C124.263 74.45 124.363 73.85 124.563 73.45C122.763 74.35 120.613 74.8 118.113 74.8C116.013 74.8 114.313 74.35 113.013 73.45C111.313 74.15 109.463 74.5 107.463 74.5C104.963 74.5 102.663 73.9 100.563 72.7C98.9633 73.3 97.5133 73.6 96.2133 73.6C93.7133 73.6 91.7133 72.8 90.2133 71.2C88.7133 69.6 87.9633 67.75 87.9633 65.65C87.9633 62.95 89.0133 61.2 91.1133 60.4C92.8133 58.4 95.2633 57.4 98.4633 57.4C101.063 57.4 103.013 57.9 104.313 58.9C106.013 58.2 108.013 57.85 110.313 57.85C113.613 57.85 116.213 58.6 118.113 60.1C118.513 59.7 119.113 59.35 119.913 59.05C120.813 58.75 121.663 58.6 122.463 58.6C123.263 58.6 124.163 58.8 125.163 59.2C124.463 58.4 123.913 57.2 123.513 55.6C123.113 54 122.913 52.35 122.913 50.65C122.913 48.65 123.163 47.25 123.663 46.45C122.563 45.55 121.713 44.3 121.113 42.7C120.613 41.1 120.363 39.4 120.363 37.6C120.363 34.4 121.063 31.8 122.463 29.8C122.063 28.9 121.863 27.9 121.863 26.8C121.863 24.9 122.613 23.35 124.113 22.15C125.713 20.85 127.513 20.2 129.513 20.2C131.113 20.2 132.513 20.7 133.713 21.7C135.013 22.6 135.813 24 136.113 25.9C137.313 27.1 137.913 28.95 137.913 31.45C137.913 33.35 137.463 34.9 136.563 36.1C137.263 37.1 137.613 38.6 137.613 40.6C137.613 42.3 137.413 43.6 137.013 44.5C138.813 46.9 139.713 49.15 139.713 51.25C139.713 52.35 139.513 53.4 139.113 54.4C138.813 55.3 138.263 56.55 137.463 58.15C138.863 57.45 140.113 57.1 141.213 57.1C143.113 57.1 144.763 57.8 146.163 59.2C146.563 59 147.213 58.9 148.113 58.9C148.913 58.9 149.513 59 149.913 59.2C151.013 58.4 152.363 58 153.963 58C155.163 58 156.213 58.2 157.113 58.6C157.613 58.5 158.413 58.45 159.513 58.45C161.313 58.45 162.663 58.7 163.563 59.2ZM250.59 96.4C251.99 98.9 252.69 101.1 252.69 103C252.69 105.2 251.79 106.95 249.99 108.25C248.99 108.85 247.94 109.15 246.84 109.15C245.34 109.15 243.94 108.65 242.64 107.65C241.44 106.65 240.74 105.35 240.54 103.75C239.04 101.75 238.29 99.4 238.29 96.7C238.29 95.5 238.44 94.3 238.74 93.1C237.94 91.2 237.54 89.25 237.54 87.25C237.54 85.05 237.94 83.3 238.74 82C238.24 80.8 237.99 79.65 237.99 78.55C237.99 77.45 238.14 76.45 238.44 75.55C238.84 74.65 239.34 74 239.94 73.6C239.14 72.3 238.74 71.05 238.74 69.85C238.74 69.05 238.94 68.3 239.34 67.6C238.64 66.9 238.04 66 237.54 64.9C237.14 63.7 236.94 62.55 236.94 61.45C236.94 60.05 237.34 58.95 238.14 58.15C238.04 57.65 237.99 56.95 237.99 56.05C237.99 55.15 238.04 54.5 238.14 54.1C237.34 53.2 236.94 52 236.94 50.5C236.94 48.7 237.49 47.25 238.59 46.15C237.89 45.55 237.34 44.7 236.94 43.6C236.54 42.4 236.34 41.15 236.34 39.85C236.34 37.45 236.84 35.8 237.84 34.9C237.44 33.1 237.24 31.9 237.24 31.3C237.24 30.5 237.44 29.4 237.84 28C236.74 26.6 236.19 25.15 236.19 23.65C236.19 22.85 236.44 21.95 236.94 20.95C236.44 20.15 236.19 19.15 236.19 17.95C234.09 19.25 231.84 19.9 229.44 19.9C228.34 19.9 227.29 19.75 226.29 19.45C225.09 21.15 223.34 22 221.04 22C220.14 22 219.44 21.9 218.94 21.7C217.84 22.5 216.69 22.9 215.49 22.9C213.89 22.9 212.44 22.3 211.14 21.1C209.84 19.9 209.19 18.4 209.19 16.6C209.19 14.6 210.29 12.85 212.49 11.35C214.69 9.85 216.84 9.2 218.94 9.39999C219.54 8.59999 220.44 7.99999 221.64 7.59999C222.94 7.2 224.34 7 225.84 7C227.04 7 227.99 7.15 228.69 7.44999C229.79 6.64999 231.29 6.24999 233.19 6.24999C233.19 5.64999 233.49 5.14999 234.09 4.74999C234.79 4.24999 235.49 4.04999 236.19 4.14999C237.99 3.14999 239.74 2.64999 241.44 2.64999C243.14 2.64999 244.69 3.14999 246.09 4.14999C247.39 4.65 248.44 5.65 249.24 7.15C250.04 8.55 250.44 10.05 250.44 11.65C250.44 13.55 249.94 15.05 248.94 16.15C250.34 17.25 251.04 18.85 251.04 20.95C251.04 22.55 250.64 23.8 249.84 24.7C250.44 26.2 250.74 28.1 250.74 30.4C250.74 34.1 250.14 37 248.94 39.1C250.74 40.3 251.64 42.15 251.64 44.65C251.64 46.55 251.14 48.4 250.14 50.2C250.64 51.4 250.89 52.45 250.89 53.35C250.89 54.35 250.69 55.2 250.29 55.9C250.89 56.8 251.19 57.8 251.19 58.9C251.19 59.9 250.89 60.95 250.29 62.05C251.59 64.65 252.24 67.95 252.24 71.95C252.24 74.95 251.79 77.45 250.89 79.45C251.49 80.35 251.79 81.4 251.79 82.6C251.79 83.8 251.44 84.9 250.74 85.9C251.24 86.9 251.49 88.35 251.49 90.25C251.49 92.15 251.19 94.2 250.59 96.4ZM286.834 44.5C286.234 44.3 285.684 44.2 285.184 44.2C283.684 44.2 282.334 44.8 281.134 46C279.934 47.1 279.334 48.35 279.334 49.75C279.334 51.55 280.034 53.15 281.434 54.55C282.934 55.85 284.534 56.4 286.234 56.2C287.034 56.4 287.634 56.5 288.034 56.5C288.434 56.5 288.934 56.4 289.534 56.2C290.534 57 291.584 57.4 292.684 57.4C293.484 57.4 294.234 57.25 294.934 56.95C295.934 57.45 296.934 57.7 297.934 57.7C298.634 57.7 299.434 57.55 300.334 57.25C301.234 57.85 302.134 58.15 303.034 58.15C303.734 58.15 304.484 58 305.284 57.7C306.484 57.9 307.284 58 307.684 58C308.584 58 309.284 57.75 309.784 57.25C310.084 57.65 310.584 58 311.284 58.3C312.084 58.6 312.934 58.75 313.834 58.75C315.334 58.75 316.534 58.35 317.434 57.55C317.834 57.75 318.534 58.05 319.534 58.45C320.534 58.85 321.434 59.05 322.234 59.05C323.334 59.05 324.334 58.65 325.234 57.85C325.634 58.05 326.284 58.15 327.184 58.15C328.384 58.15 329.284 57.9 329.884 57.4C330.884 57.8 331.634 58 332.134 58C333.634 58 334.884 57.35 335.884 56.05C336.884 54.75 337.384 53.25 337.384 51.55C337.384 50.25 337.034 49.1 336.334 48.1C335.634 47.1 334.584 46.4 333.184 46C332.584 45.3 331.384 44.95 329.584 44.95C328.784 44.95 327.984 45.05 327.184 45.25C326.384 45.45 325.834 45.7 325.534 46C325.234 45.9 324.784 45.85 324.184 45.85C323.184 45.85 322.334 46.05 321.634 46.45C320.234 45.75 318.534 45.4 316.534 45.4C315.334 45.4 314.334 45.6 313.534 46C312.334 45.3 310.834 44.95 309.034 44.95C307.034 44.95 305.534 45.5 304.534 46.6C303.434 45.5 302.134 44.95 300.634 44.95C299.634 44.95 298.684 45.25 297.784 45.85C296.984 45.55 296.234 45.4 295.534 45.4C294.834 45.4 294.284 45.45 293.884 45.55C292.784 44.55 291.384 44.05 289.684 44.05C288.584 44.05 287.634 44.2 286.834 44.5ZM333.484 75.55C335.084 75.45 336.384 76.1 337.384 77.5C338.384 78.8 338.884 80.3 338.884 82C338.884 83.3 338.484 84.4 337.684 85.3C336.984 86.2 335.934 86.65 334.534 86.65C333.634 86.65 332.884 86.55 332.284 86.35C330.884 87.45 329.784 88 328.984 88C328.484 88 327.934 87.9 327.334 87.7C326.834 87.4 326.484 87.2 326.284 87.1C325.284 87.6 324.334 87.85 323.434 87.85C322.134 87.85 320.934 87.4 319.834 86.5C318.634 87.8 316.834 88.45 314.434 88.45C312.234 88.45 310.584 88 309.484 87.1C308.484 88.4 307.084 89.05 305.284 89.05C303.984 89.05 302.784 88.6 301.684 87.7C300.484 88.7 299.034 89.2 297.334 89.2C295.734 89.2 294.434 88.65 293.434 87.55C293.134 88.15 292.434 88.75 291.334 89.35C290.234 89.85 289.034 90.1 287.734 90.1C286.534 90.1 285.434 89.8 284.434 89.2C283.634 89.6 282.784 89.8 281.884 89.8C280.384 89.8 279.084 89.25 277.984 88.15C276.984 86.95 276.484 85.6 276.484 84.1C276.484 82 277.534 80.45 279.634 79.45C280.034 78.55 280.684 77.85 281.584 77.35C282.484 76.85 283.384 76.6 284.284 76.6C285.184 76.6 286.134 76.85 287.134 77.35C288.134 76.75 289.284 76.45 290.584 76.45C291.084 76.45 291.634 76.55 292.234 76.75C292.934 76.35 293.784 76.15 294.784 76.15C295.984 76.15 297.134 76.55 298.234 77.35C299.434 76.45 300.784 76 302.284 76C303.284 76 304.184 76.2 304.984 76.6C305.484 76.3 306.234 76.05 307.234 75.85C308.234 75.55 309.184 75.4 310.084 75.4C311.884 75.4 313.234 75.85 314.134 76.75C315.234 75.65 316.834 75.1 318.934 75.1C321.034 75.1 322.684 75.6 323.884 76.6C324.684 76.3 325.434 76.15 326.134 76.15C326.534 76.15 327.034 76.25 327.634 76.45C328.534 75.65 329.684 75.25 331.084 75.25C331.884 75.25 332.634 75.4 333.334 75.7L333.484 75.55ZM368.839 27.85C368.639 27.95 368.189 28.3 367.489 28.9C366.789 29.5 366.039 30 365.239 30.4C364.539 30.7 363.839 30.85 363.139 30.85C362.339 30.85 361.589 30.65 360.889 30.25C359.889 29.65 359.089 28.9 358.489 28C357.989 27 357.739 25.95 357.739 24.85C357.739 23.55 358.089 22.35 358.789 21.25C359.489 20.15 360.489 19.4 361.789 19C362.089 17.4 363.139 15.55 364.939 13.45C364.839 13.15 364.789 12.65 364.789 11.95C364.789 9.85 365.939 7.99999 368.239 6.4C370.639 4.79999 373.039 3.99999 375.439 3.99999C376.239 3.99999 376.789 4.04999 377.089 4.14999C377.489 3.04999 378.389 2.15 379.789 1.45C381.289 0.649997 382.789 0.249996 384.289 0.249996C385.089 0.249996 385.889 0.449997 386.689 0.849998C387.389 0.449997 388.289 0.249996 389.389 0.249996C390.789 0.249996 392.189 0.649997 393.589 1.45C395.089 2.15 396.189 3.14999 396.889 4.45C398.889 4.54999 400.439 5.2 401.539 6.4C402.639 7.59999 403.339 8.99999 403.639 10.6C406.539 12.1 407.989 14.05 407.989 16.45C407.989 16.85 407.889 17.55 407.689 18.55C408.689 19.55 409.189 20.9 409.189 22.6C409.189 23.4 409.039 24.2 408.739 25C409.839 26.1 410.389 27.7 410.389 29.8C410.389 31.3 410.039 32.8 409.339 34.3C408.739 35.7 407.889 36.8 406.789 37.6C407.089 38.3 407.239 39 407.239 39.7C407.239 40.4 406.989 41.2 406.489 42.1C406.289 43.4 405.889 44.4 405.289 45.1C404.689 45.8 403.839 46.4 402.739 46.9C401.839 48.5 400.839 49.85 399.739 50.95C398.739 52.05 397.489 53 395.989 53.8C396.189 54.6 396.289 55.25 396.289 55.75C396.289 56.95 395.939 58.1 395.239 59.2C394.639 60.2 393.789 60.9 392.689 61.3C392.589 62.7 392.239 63.75 391.639 64.45C391.039 65.15 390.139 65.75 388.939 66.25C388.939 66.85 388.789 67.4 388.489 67.9C389.589 69.3 390.139 70.7 390.139 72.1C390.139 74.3 388.989 76.1 386.689 77.5C386.589 79.2 385.889 80.6 384.589 81.7C383.289 82.8 381.839 83.35 380.239 83.35C379.039 83.35 377.939 83 376.939 82.3C375.239 81 374.389 79.15 374.389 76.75C374.389 74.35 375.039 72.35 376.339 70.75C376.139 70.25 376.039 69.45 376.039 68.35C376.039 66.25 376.539 64.05 377.539 61.75C378.539 59.45 379.689 57.9 380.989 57.1C381.189 54.9 382.139 53.25 383.839 52.15C383.939 49.95 384.839 47.85 386.539 45.85C388.239 43.85 390.639 41.45 393.739 38.65C393.639 36.95 393.889 35.3 394.489 33.7C395.189 32.1 396.139 30.8 397.339 29.8C396.439 28.7 395.989 27.35 395.989 25.75C395.989 25.05 396.039 24.55 396.139 24.25C394.939 22.85 394.489 21.2 394.789 19.3C394.189 18.9 393.739 18.35 393.439 17.65C391.939 17.75 390.539 17.4 389.239 16.6C388.039 15.7 387.239 14.55 386.839 13.15H385.489C383.089 15.35 380.789 16.45 378.589 16.45C378.289 16.45 377.739 16.35 376.939 16.15C377.339 17.25 376.989 18.4 375.889 19.6C374.889 20.8 373.789 21.5 372.589 21.7C372.789 22.9 372.489 24.15 371.689 25.45C370.989 26.65 370.039 27.45 368.839 27.85ZM380.089 107.35C381.889 107.45 383.289 106.85 384.289 105.55C385.389 104.15 385.939 102.55 385.939 100.75C385.939 99.15 385.489 97.8 384.589 96.7C383.689 95.6 382.389 95.05 380.689 95.05C379.889 95.05 379.289 95.1 378.889 95.2C378.289 95 377.789 94.9 377.389 94.9C375.989 94.9 374.689 95.55 373.489 96.85C372.289 98.15 371.689 99.6 371.689 101.2C371.689 103.4 372.489 105.05 374.089 106.15C375.689 107.15 377.689 107.55 380.089 107.35Z" fill="black"/>
</svg>
