<svg width="165" height="45" viewBox="0 0 165 45" fill="none" xmlns="http://www.w3.org/2000/svg">
<g opacity="0.35">
<path d="M3.92085 6.03023C9.03276 0.918309 17.2504 0.804993 22.5 5.69028C27.7496 0.804999 35.9674 0.918309 41.0791 6.03023C46.307 11.258 46.307 19.734 41.0791 24.9618L22.5 43.5409L3.92085 24.9618C-1.30695 19.734 -1.30695 11.258 3.92085 6.03023Z" fill="#FF5757"/>
</g>
<path d="M63.9208 6.03023C69.0328 0.918309 77.2504 0.804993 82.5 5.69028C87.7496 0.804999 95.9674 0.918309 101.079 6.03023C106.307 11.258 106.307 19.734 101.079 24.9618L82.5 43.5409L63.9208 24.9618C58.6931 19.734 58.693 11.258 63.9208 6.03023Z" fill="#FF5757"/>
<path d="M123.921 6.03023C129.033 0.918309 137.25 0.804993 142.5 5.69028C147.75 0.804999 155.967 0.918309 161.079 6.03023C166.307 11.258 166.307 19.734 161.079 24.9618L142.5 43.5409L123.921 24.9618C118.693 19.734 118.693 11.258 123.921 6.03023Z" fill="#FF5757"/>
</svg>
